PathFileType	4	(X/Y/Z)	C:\Users\Graham\Documents\MATLAB\MOtoNMS_v2_2\MyData\ElaboratedData\S9\22-05-17\staticElaborations\Static1\Static1\\Static1.trc
DataRate	CameraRate	NumFrames	NumMarkers	Units	OrigDataRate	DataStartFrame
100	100	4	38	mm	100	2
Frame#	Time	V_Sacral			R_ASIS			L_ASIS			R_Knee_Lat			R_Knee_Med			R_Thigh_Upper			R_Thigh_Front			R_Thigh_Rear			L_Knee_Lat			L_Knee_Med			L_Thigh_Upper			L_Thigh_Front			L_Thigh_Rear			R_Ankle_Lat			R_Ankle_Med			R_Shank_Upper			R_Shank_Front			R_Shank_Rear			L_Ankle_Lat			L_Ankle_Med			L_Shank_Upper			L_Shank_Front			L_Shank_Rear			R_Heel			R_MTP1			R_MTP5			L_Heel			L_MTP1			L_MTP5			Clavicle			R_Acromium			L_Acromium			LAJC			RAJC			LHJC			RHJC			LKJC			RKJC		
		X1	Y1	Z1	X2	Y2	Z2	X3	Y3	Z3	X4	Y4	Z4	X5	Y5	Z5	X6	Y6	Z6	X7	Y7	Z7	X8	Y8	Z8	X9	Y9	Z9	X10	Y10	Z10	X11	Y11	Z11	X12	Y12	Z12	X13	Y13	Z13	X14	Y14	Z14	X15	Y15	Z15	X16	Y16	Z16	X17	Y17	Z17	X18	Y18	Z18	X19	Y19	Z19	X20	Y20	Z20	X21	Y21	Z21	X22	Y22	Z22	X23	Y23	Z23	X24	Y24	Z24	X25	Y25	Z25	X26	Y26	Z26	X27	Y27	Z27	X28	Y28	Z28	X29	Y29	Z29	X30	Y30	Z30	X31	Y31	Z31	X32	Y32	Z32	X33	Y33	Z33	X34	Y34	Z34	X35	Y35	Z35	X36	Y36	Z36	X37	Y37	Z37	X38	Y38	Z38	

2	0.010000	-156.846617	1026.611985	-4.956634	5.909745	1000.544394	158.940700	62.308158	1007.797134	-80.967869	-97.413624	497.397516	166.204221	-101.597213	476.199588	52.356458	29.641416	722.481177	140.162032	1.474604	612.943154	95.684721	-5.464891	607.645046	172.693780	-59.864585	496.912201	-147.735043	-75.009977	473.330819	-32.047856	68.212368	717.310897	-79.431339	34.909274	606.848115	-51.223027	41.084695	607.427176	-118.352390	-144.965909	96.088139	146.043031	-126.237085	100.784264	56.047591	-61.093039	340.556801	136.592287	-94.501506	229.567602	78.038110	-99.885739	223.858234	159.594181	-136.326062	89.789793	-152.112797	-125.813700	97.894130	-58.102211	-40.459299	335.460174	-120.587457	-71.617092	220.824167	-74.006039	-80.530273	222.207388	-155.038050	-204.131127	43.287890	112.988086	35.209137	59.499800	78.527885	21.949582	51.089787	161.155544	-204.101859	46.073420	-110.216362	40.134534	55.230028	-69.001838	36.864281	49.329855	-148.745551	35.546362	1405.667503	48.839427	-102.569775	1473.898694	223.957097	-31.919385	1512.665540	-167.190420	-131.069881	93.841961	-105.107504	-135.601497	98.436202	101.045311	-9.846811	929.015420	-64.738548	-50.409448	923.799135	107.807517	-67.437281	485.121510	-89.891449	-99.505418	486.798552	109.280340	
3	0.020000	-156.807009	1026.604357	-4.909473	6.037870	1000.536475	158.901154	62.313000	1007.793090	-81.041016	-97.352203	497.386972	166.206876	-101.577359	476.196742	52.361166	29.732180	722.454060	140.099886	1.538518	612.922884	95.634188	-5.405608	607.614947	172.614737	-59.883785	496.909916	-147.748735	-75.037700	473.321278	-32.072229	68.213928	717.301835	-79.489728	34.909193	606.846044	-51.260219	41.066696	607.417325	-118.393676	-144.960878	96.085779	146.049764	-126.233474	100.787598	56.050235	-61.055456	340.550521	136.590210	-94.484084	229.571796	78.037471	-99.858007	223.853012	159.596895	-136.329270	89.793190	-152.116101	-125.822775	97.891711	-58.103887	-40.471338	335.461996	-120.594314	-71.610031	220.839741	-74.007792	-80.545126	222.208809	-155.042606	-204.128203	43.289871	112.989018	35.211427	59.498918	78.528009	21.956008	51.092738	161.155493	-203.613482	45.815836	-110.352188	40.134081	55.229821	-69.005843	36.861871	49.335473	-148.746043	35.523005	1405.650540	48.763700	-102.488206	1473.897607	223.949659	-32.051588	1512.667663	-167.233069	-131.076022	93.842451	-105.109994	-135.597176	98.436689	101.049999	-9.833553	929.008945	-64.774785	-50.307460	923.789881	107.795178	-67.460742	485.115597	-89.910482	-99.464781	486.791857	109.284021	
4	0.030000	-156.768140	1026.596887	-4.862566	6.164933	1000.528957	158.861119	62.317182	1007.789965	-81.113631	-97.292443	497.377167	166.207824	-101.556504	476.193859	52.365511	29.823259	722.428382	140.038520	1.601798	612.903221	95.583688	-5.344125	607.586727	172.539332	-59.903018	496.907797	-147.763119	-75.063578	473.313886	-32.097069	68.215213	717.293611	-79.549031	34.908840	606.843796	-51.298714	41.048747	607.408346	-118.435822	-144.955731	96.083695	146.055963	-126.229782	100.790901	56.052718	-61.018630	340.543997	136.587280	-94.467306	229.575291	78.036475	-99.830754	223.847935	159.599613	-136.332171	89.796353	-152.119209	-125.831115	97.889462	-58.105340	-40.483158	335.464163	-120.601746	-71.605902	220.854775	-74.010077	-80.559421	222.210631	-155.048348	-204.125682	43.291873	112.989626	35.213464	59.497983	78.528037	21.961866	51.095665	161.155300	-203.149760	45.571626	-110.480553	40.133679	55.229893	-69.010062	36.859824	49.340557	-148.746481	35.499865	1405.634327	48.688920	-102.408123	1473.895939	223.943458	-32.182420	1512.671412	-167.273842	-131.081643	93.842908	-105.112275	-135.592756	98.437298	101.054341	-9.820677	929.003400	-64.810928	-50.206155	923.781182	107.782247	-67.483298	485.110841	-89.930094	-99.424474	486.785513	109.286668	
5	0.040000	-156.730452	1026.589528	-4.815632	6.291290	1000.522007	158.819611	62.319603	1007.788433	-81.186712	-97.234493	497.368543	166.205697	-101.533019	476.190977	52.369118	29.915835	722.405082	139.977460	1.664644	612.884545	95.532418	-5.277429	607.561801	172.469849	-59.922907	496.906011	-147.779309	-75.085955	473.309424	-32.119501	68.215672	717.286954	-79.610882	34.908029	606.841468	-51.340510	41.030220	607.400929	-118.480560	-144.950621	96.082298	146.061424	-126.226033	100.794130	56.054814	-60.982621	340.536820	136.582665	-94.451613	229.577376	78.034566	-99.804011	223.842892	159.602272	-136.334564	89.799051	-152.121983	-125.838083	97.887471	-58.106416	-40.494827	335.466960	-120.610573	-71.604682	220.869160	-74.013913	-80.572946	222.213133	-155.056214	-204.123898	43.293884	112.989676	35.215022	59.496863	78.527779	21.966618	51.098524	161.154671	-202.732889	45.352606	-110.594805	40.133344	55.230467	-69.014765	36.858289	49.344657	-148.746906	35.476250	1405.619558	48.614538	-102.330125	1473.893221	223.939048	-32.313327	1512.677413	-167.312046	-131.086323	93.843261	-105.114200	-135.588327	98.438214	101.058119	-9.808902	928.999327	-64.847715	-50.105207	923.773217	107.768013	-67.504431	485.107717	-89.949405	-99.383756	486.779760	109.287407	
